{
	"asset":{
		"version":"2.0",
		"generator":"Blender Foundation Blender (stable FBX IO) 2.78 (sub 0)",
		"copyright":""
	},
	"scenes":[{
		"nodes":[0]
	}],
	"nodes":[{
		"rotation":[0.49098822474479678,
		0.4417775571346283,
		0.2429829239845276,
		-0.7104381918907166],
		"name":"Satellite",
		"translation":[56.063682556152347,
		87.30284118652344,
		-0.7723726034164429],
		"scale":[1.0,
		1.0,
		1.0],
		"children":[1,
		2,
		3,
		4]
	},
	{
		"rotation":[0.49098822474479678,
		0.4417775571346283,
		0.2429829239845276,
		0.7104381918907166],
		"name":"Satellite",
		"mesh":0,
		"translation":[1.4432899320127036e-15,
		1.199040866595169e-14,
		1.529332216421153e-14],
		"scale":[1.0,
		1.0,
		1.0]
	},
	{
		"rotation":[0.49098822474479678,
		0.4417775571346283,
		0.2429829239845276,
		0.7104381918907166],
		"name":"Satellite",
		"mesh":1,
		"translation":[2.220446049250313e-15,
		1.1546319456101628e-14,
		1.5404344466674048e-14],
		"scale":[1.0,
		1.0,
		1.0]
	},
	{
		"rotation":[0.49098822474479678,
		0.4417775571346283,
		0.2429829239845276,
		0.7104381918907166],
		"name":"Satellite",
		"mesh":2,
		"translation":[2.220446049250313e-15,
		1.1546319456101628e-14,
		1.5404344466674048e-14],
		"scale":[1.0,
		1.0,
		1.0]
	},
	{
		"rotation":[0.49098822474479678,
		0.4417775571346283,
		0.2429829239845276,
		0.7104381918907166],
		"name":"Satellite",
		"mesh":3,
		"translation":[2.220446049250313e-15,
		1.1546319456101628e-14,
		1.5404344466674048e-14],
		"scale":[1.0,
		1.0,
		1.0]
	}],
	"meshes":[{
		"name":"Satellite",
		"primitives":[{
			"attributes":{
				"POSITION":1,
				"NORMAL":2,
				"TEXCOORD_0":3
			},
			"indices":0,
			"material":0
		}]
	},
	{
		"name":"Satellite",
		"primitives":[{
			"attributes":{
				"POSITION":5,
				"NORMAL":6,
				"TEXCOORD_0":7
			},
			"indices":4,
			"material":0
		}]
	},
	{
		"name":"Satellite",
		"primitives":[{
			"attributes":{
				"POSITION":9,
				"NORMAL":10,
				"TEXCOORD_0":11
			},
			"indices":8,
			"material":0
		}]
	},
	{
		"name":"Satellite",
		"primitives":[{
			"attributes":{
				"POSITION":13,
				"NORMAL":14,
				"TEXCOORD_0":15
			},
			"indices":12,
			"material":0
		}]
	}],
	"accessors":[{
		"bufferView":0,
		"max":[11135],
		"type":"SCALAR",
		"componentType":5123,
		"count":11136,
		"byteOffset":0,
		"min":[0]
	},
	{
		"bufferView":1,
		"max":[-24.977867126464845,
		602.3773803710938,
		271.7502136230469],
		"type":"VEC3",
		"componentType":5126,
		"count":11136,
		"byteOffset":0,
		"min":[-402.0003967285156,
		333.8592224121094,
		-130.96035766601563]
	},
	{
		"bufferView":1,
		"max":[0.9975666999816895,
		0.9997333884239197,
		0.9983301758766174],
		"type":"VEC3",
		"componentType":5126,
		"count":11136,
		"byteOffset":12,
		"min":[-0.9975666999816895,
		-0.999323844909668,
		-0.9990023970603943]
	},
	{
		"bufferView":1,
		"max":[0.48209381103515627,
		0.9735107421875],
		"type":"VEC2",
		"componentType":5126,
		"count":11136,
		"byteOffset":24,
		"min":[0.007949113845825196,
		0.015756607055664064]
	},
	{
		"bufferView":2,
		"max":[22223],
		"type":"SCALAR",
		"componentType":5123,
		"count":22224,
		"byteOffset":0,
		"min":[0]
	},
	{
		"bufferView":3,
		"max":[348.290771484375,
		408.4166259765625,
		680.5015258789063],
		"type":"VEC3",
		"componentType":5126,
		"count":22224,
		"byteOffset":0,
		"min":[-496.5914001464844,
		-273.88812255859377,
		-629.978515625]
	},
	{
		"bufferView":3,
		"max":[0.9991346597671509,
		0.9981631636619568,
		0.9991506338119507],
		"type":"VEC3",
		"componentType":5126,
		"count":22224,
		"byteOffset":12,
		"min":[-0.9994152188301086,
		-0.9992201924324036,
		-0.996760904788971]
	},
	{
		"bufferView":3,
		"max":[0.98248291015625,
		0.7574920654296875],
		"type":"VEC2",
		"componentType":5126,
		"count":22224,
		"byteOffset":24,
		"min":[0.012795448303222657,
		0.009305477142333985]
	},
	{
		"bufferView":4,
		"max":[20303],
		"type":"SCALAR",
		"componentType":5123,
		"count":20304,
		"byteOffset":0,
		"min":[0]
	},
	{
		"bufferView":5,
		"max":[-120.19149017333985,
		301.74053955078127,
		-122.6357650756836],
		"type":"VEC3",
		"componentType":5126,
		"count":20304,
		"byteOffset":0,
		"min":[-505.3036804199219,
		-56.72886657714844,
		-643.5990600585938]
	},
	{
		"bufferView":5,
		"max":[0.9919077754020691,
		0.9983974695205689,
		0.9690526723861694],
		"type":"VEC3",
		"componentType":5126,
		"count":20304,
		"byteOffset":12,
		"min":[-0.9956961274147034,
		-0.9993117451667786,
		-0.98641437292099]
	},
	{
		"bufferView":5,
		"max":[0.464752197265625,
		0.981048583984375],
		"type":"VEC2",
		"componentType":5126,
		"count":20304,
		"byteOffset":24,
		"min":[0.07136726379394531,
		0.1486663818359375]
	},
	{
		"bufferView":6,
		"max":[20303],
		"type":"SCALAR",
		"componentType":5123,
		"count":20304,
		"byteOffset":0,
		"min":[0]
	},
	{
		"bufferView":7,
		"max":[361.7658386230469,
		388.57257080078127,
		690.8274536132813],
		"type":"VEC3",
		"componentType":5126,
		"count":20304,
		"byteOffset":0,
		"min":[-23.346294403076173,
		30.103286743164064,
		169.22994995117188]
	},
	{
		"bufferView":7,
		"max":[0.9919077754020691,
		0.9993117451667786,
		0.9690526723861694],
		"type":"VEC3",
		"componentType":5126,
		"count":20304,
		"byteOffset":12,
		"min":[-0.9956961274147034,
		-0.995867133140564,
		-0.98641437292099]
	},
	{
		"bufferView":7,
		"max":[0.66693115234375,
		0.980438232421875],
		"type":"VEC2",
		"componentType":5126,
		"count":20304,
		"byteOffset":24,
		"min":[0.07318687438964844,
		0.1451263427734375]
	}],
	"bufferViews":[{
		"buffer":0,
		"byteOffset":0,
		"byteLength":22272,
		"target":34963
	},
	{
		"buffer":0,
		"byteOffset":22272,
		"byteLength":356352,
		"target":34962,
		"byteStride":32
	},
	{
		"buffer":1,
		"byteOffset":0,
		"byteLength":44448,
		"target":34963
	},
	{
		"buffer":1,
		"byteOffset":44448,
		"byteLength":711168,
		"target":34962,
		"byteStride":32
	},
	{
		"buffer":2,
		"byteOffset":0,
		"byteLength":40608,
		"target":34963
	},
	{
		"buffer":2,
		"byteOffset":40608,
		"byteLength":649728,
		"target":34962,
		"byteStride":32
	},
	{
		"buffer":3,
		"byteOffset":0,
		"byteLength":40608,
		"target":34963
	},
	{
		"buffer":3,
		"byteOffset":40608,
		"byteLength":649728,
		"target":34962,
		"byteStride":32
	}],
	"buffers":[{
		"uri":"data:application/octet-stream;base64,",
		"byteLength":378624
	},
	{
		"uri":"data:application/octet-stream;base64,",
		"byteLength":755616
	},
	{
		"uri":"data:application/octet-stream;base64,",
		"byteLength":690336
	},
	{
		"uri":"data:application/octet-stream;base64,",
		"byteLength":690336
	}],
	"images":[{
		"uri":"data:image/png;base64,"
	}],
	"samplers":[{
		"magFilter":9729,
		"minFilter":9729,
		"wrapS":10497,
		"wrapT":10497
	}],
	"textures":[{
		"sampler":0,
		"source":0
	}],
	"materials":[{
		"pbrMetallicRoughness":{
			"baseColorTexture":{
				"index":0
			},
			"baseColorFactor":[1.0,
			1.0,
			1.0,
			1.0],
			"metallicFactor":0.0,
			"roughnessFactor":0.5
		},
		"emissiveFactor":[0.0,
		0.0,
		0.0],
		"alphaMode":"OPAQUE",
		"doubleSided":false,
		"name":"Satellite"
	}]
}